<svg width="20" height="20" viewBox="0 0 20 20" fill="none" xmlns="http://www.w3.org/2000/svg">
<g clip-path="url(#clip0_357_2168)">
<path d="M15 4.1665H5.00004C4.07957 4.1665 3.33337 4.9127 3.33337 5.83317V15.8332C3.33337 16.7536 4.07957 17.4998 5.00004 17.4998H15C15.9205 17.4998 16.6667 16.7536 16.6667 15.8332V5.83317C16.6667 4.9127 15.9205 4.1665 15 4.1665Z" stroke="url(#paint0_linear_357_2168)" stroke-width="1.25" stroke-linecap="round" stroke-linejoin="round"/>
<path d="M13.3334 2.5V5.83333" stroke="url(#paint1_linear_357_2168)" stroke-width="1.25" stroke-linecap="round" stroke-linejoin="round"/>
<path d="M6.66663 2.5V5.83333" stroke="url(#paint2_linear_357_2168)" stroke-width="1.25" stroke-linecap="round" stroke-linejoin="round"/>
<path d="M3.33337 9.1665H16.6667" stroke="url(#paint3_linear_357_2168)" stroke-width="1.25" stroke-linecap="round" stroke-linejoin="round"/>
<path d="M9.16663 12.5H9.99996" stroke="url(#paint4_linear_357_2168)" stroke-width="1.25" stroke-linecap="round" stroke-linejoin="round"/>
</g>
<defs>
<linearGradient id="paint0_linear_357_2168" x1="3.33337" y1="4.1665" x2="18.979" y2="11.1784" gradientUnits="userSpaceOnUse">
<stop stop-color="#19184D"/>
<stop offset="1" stop-color="#530393"/>
</linearGradient>
<linearGradient id="paint1_linear_357_2168" x1="13.3334" y1="2.5" x2="14.7175" y2="2.68609" gradientUnits="userSpaceOnUse">
<stop stop-color="#19184D"/>
<stop offset="1" stop-color="#530393"/>
</linearGradient>
<linearGradient id="paint2_linear_357_2168" x1="6.66663" y1="2.5" x2="8.05071" y2="2.68609" gradientUnits="userSpaceOnUse">
<stop stop-color="#19184D"/>
<stop offset="1" stop-color="#530393"/>
</linearGradient>
<linearGradient id="paint3_linear_357_2168" x1="3.33337" y1="9.1665" x2="3.8452" y2="12.225" gradientUnits="userSpaceOnUse">
<stop stop-color="#19184D"/>
<stop offset="1" stop-color="#530393"/>
</linearGradient>
<linearGradient id="paint4_linear_357_2168" x1="9.16663" y1="12.5" x2="10.1971" y2="12.8849" gradientUnits="userSpaceOnUse">
<stop stop-color="#19184D"/>
<stop offset="1" stop-color="#530393"/>
</linearGradient>
<clipPath id="clip0_357_2168">
<rect width="20" height="20" fill="white"/>
</clipPath>
</defs>
</svg>
