<svg width="16" height="16" viewBox="0 0 16 16" fill="none" xmlns="http://www.w3.org/2000/svg">
<g clip-path="url(#clip0_1_242)">
<path d="M11.3334 7.33334H4.66671C3.93033 7.33334 3.33337 7.9303 3.33337 8.66668V12.6667C3.33337 13.4031 3.93033 14 4.66671 14H11.3334C12.0698 14 12.6667 13.4031 12.6667 12.6667V8.66668C12.6667 7.9303 12.0698 7.33334 11.3334 7.33334Z" stroke="#A1A2A8" stroke-opacity="0.8" stroke-width="1.25" stroke-linecap="round" stroke-linejoin="round"/>
<path d="M8.00004 11.3333C8.36823 11.3333 8.66671 11.0349 8.66671 10.6667C8.66671 10.2985 8.36823 10 8.00004 10C7.63185 10 7.33337 10.2985 7.33337 10.6667C7.33337 11.0349 7.63185 11.3333 8.00004 11.3333Z" stroke="#A1A2A8" stroke-opacity="0.8" stroke-width="1.25" stroke-linecap="round" stroke-linejoin="round"/>
<path d="M5.33337 7.33333V4.66667C5.33337 3.95942 5.61433 3.28115 6.11442 2.78105C6.61452 2.28095 7.2928 2 8.00004 2C8.70728 2 9.38556 2.28095 9.88566 2.78105C10.3858 3.28115 10.6667 3.95942 10.6667 4.66667V7.33333" stroke="#A1A2A8" stroke-opacity="0.8" stroke-width="1.25" stroke-linecap="round" stroke-linejoin="round"/>
</g>
<defs>
<clipPath id="clip0_1_242">
<rect width="16" height="16" fill="white"/>
</clipPath>
</defs>
</svg>
