<svg width="16" height="14" viewBox="0 0 16 14" fill="none" xmlns="http://www.w3.org/2000/svg">
<path d="M5 2C5.55312 2 6 1.55313 6 1C6 0.446875 5.55312 0 5 0H3C1.34375 0 0 1.34375 0 3V11C0 12.6562 1.34375 14 3 14H5C5.55312 14 6 13.5531 6 13C6 12.4469 5.55312 12 5 12H3C2.44688 12 2 11.5531 2 11V3C2 2.44688 2.44688 2 3 2H5ZM15.7656 7.54375C15.9156 7.40312 16 7.20625 16 7C16 6.79375 15.9156 6.59688 15.7656 6.45625L11.2656 2.20625C11.0469 2 10.7281 1.94375 10.4531 2.0625C10.1781 2.18125 10 2.45312 10 2.75V5H6C5.44688 5 5 5.44688 5 6V8C5 8.55313 5.44688 9 6 9H10V11.25C10 11.55 10.1781 11.8188 10.4531 11.9375C10.7281 12.0562 11.0469 12 11.2656 11.7937L15.7656 7.54375Z" fill="#19184D"/>
</svg>
