<svg width="24" height="29" viewBox="0 0 24 29" fill="none" xmlns="http://www.w3.org/2000/svg">
<g clip-path="url(#clip0_1_300)">
<path d="M10 10C10 9.46957 10.2107 8.96086 10.5858 8.58579C10.9609 8.21071 11.4696 8 12 8C12.5304 8 13.0391 8.21071 13.4142 8.58579C13.7893 8.96086 14 9.46957 14 10C15.1484 10.543 16.1274 11.3883 16.8321 12.4453C17.5367 13.5023 17.9404 14.7311 18 16V19C18.0753 19.6217 18.2954 20.2171 18.6428 20.7381C18.9902 21.2592 19.4551 21.6914 20 22H4C4.54494 21.6914 5.00981 21.2592 5.35719 20.7381C5.70457 20.2171 5.92474 19.6217 6 19V16C6.05956 14.7311 6.4633 13.5023 7.16795 12.4453C7.8726 11.3883 8.85159 10.543 10 10" stroke="white" stroke-width="1.5" stroke-linecap="round" stroke-linejoin="round"/>
<path d="M9 22V23C9 23.7956 9.31607 24.5587 9.87868 25.1213C10.4413 25.6839 11.2044 26 12 26C12.7956 26 13.5587 25.6839 14.1213 25.1213C14.6839 24.5587 15 23.7956 15 23V22" stroke="white" stroke-width="1.5" stroke-linecap="round" stroke-linejoin="round"/>
</g>
<circle cx="15" cy="5" r="5" fill="#F99F1E"/>
<path d="M16.5293 7H13.4209V6.23828L14.4668 5.18066C14.6836 4.9541 14.8516 4.77246 14.9707 4.63574C15.0918 4.49902 15.1768 4.38281 15.2256 4.28711C15.2744 4.19141 15.2988 4.0918 15.2988 3.98828C15.2988 3.86133 15.2578 3.76953 15.1758 3.71289C15.0938 3.65625 14.9971 3.62793 14.8857 3.62793C14.751 3.62793 14.6143 3.66699 14.4756 3.74512C14.3389 3.82129 14.1836 3.93457 14.0098 4.08496L13.374 3.34082C13.5029 3.22559 13.6396 3.11621 13.7842 3.0127C13.9287 2.90723 14.0996 2.82129 14.2969 2.75488C14.4941 2.68848 14.7344 2.65527 15.0176 2.65527C15.3086 2.65527 15.5605 2.70605 15.7734 2.80762C15.9883 2.90918 16.1543 3.04883 16.2715 3.22656C16.3887 3.40234 16.4473 3.60254 16.4473 3.82715C16.4473 4.0752 16.4014 4.29688 16.3096 4.49219C16.2197 4.68555 16.084 4.87988 15.9023 5.0752C15.7207 5.26855 15.4941 5.48828 15.2227 5.73438L14.9092 6.01562V6.04492H16.5293V7Z" fill="white"/>
<defs>
<clipPath id="clip0_1_300">
<path d="M0 5H24V17C24 23.6274 18.6274 29 12 29V29C5.37258 29 0 23.6274 0 17V5Z" fill="white"/>
</clipPath>
</defs>
</svg>
