<svg width="20" height="20" viewBox="0 0 20 20" fill="none" xmlns="http://www.w3.org/2000/svg">
<g clip-path="url(#clip0_176_2260)">
<path d="M8.79514 1.37115C9.00694 0.910208 8.84722 0.343802 8.44097 0.105521C8.03472 -0.132761 7.52778 0.0469268 7.31597 0.503958L4.08333 7.50005H1.11111C0.496528 7.50005 0 8.05865 0 8.75005C0 9.44146 0.496528 10.0001 1.11111 10.0001L2.91319 18.1055C3.15972 19.2188 4.04861 20.0001 5.06944 20.0001H14.9306C15.9514 20.0001 16.8403 19.2188 17.0868 18.1055L18.8889 10.0001C19.5035 10.0001 20 9.44146 20 8.75005C20 8.05865 19.5035 7.50005 18.8889 7.50005H15.9167L12.684 0.503958C12.4722 0.0469268 11.9688 -0.132761 11.559 0.105521C11.1493 0.343802 10.9931 0.910208 11.2049 1.37115L14.0382 7.50005H5.96181L8.79514 1.37115ZM6.66667 11.8751V15.6251C6.66667 15.9688 6.41667 16.2501 6.11111 16.2501C5.80556 16.2501 5.55556 15.9688 5.55556 15.6251V11.8751C5.55556 11.5313 5.80556 11.2501 6.11111 11.2501C6.41667 11.2501 6.66667 11.5313 6.66667 11.8751ZM10 11.2501C10.3056 11.2501 10.5556 11.5313 10.5556 11.8751V15.6251C10.5556 15.9688 10.3056 16.2501 10 16.2501C9.69444 16.2501 9.44444 15.9688 9.44444 15.6251V11.8751C9.44444 11.5313 9.69444 11.2501 10 11.2501ZM14.4444 11.8751V15.6251C14.4444 15.9688 14.1944 16.2501 13.8889 16.2501C13.5833 16.2501 13.3333 15.9688 13.3333 15.6251V11.8751C13.3333 11.5313 13.5833 11.2501 13.8889 11.2501C14.1944 11.2501 14.4444 11.5313 14.4444 11.8751Z" fill="#19184D" fill-opacity="0.4"/>
</g>
<defs>
<clipPath id="clip0_176_2260">
<rect width="20" height="20" fill="white"/>
</clipPath>
</defs>
</svg>
