<svg width="16" height="20" viewBox="0 0 16 20" fill="none" xmlns="http://www.w3.org/2000/svg">
<path d="M2.66667 0C1.19583 0 0 1.12109 0 2.5V17.5C0 18.8789 1.19583 20 2.66667 20H13.3333C14.8042 20 16 18.8789 16 17.5V6.25H10.6667C9.92917 6.25 9.33333 5.69141 9.33333 5V0H2.66667ZM10.6667 0V5H16L10.6667 0ZM4.66667 10H11.3333C11.7 10 12 10.2812 12 10.625C12 10.9688 11.7 11.25 11.3333 11.25H4.66667C4.3 11.25 4 10.9688 4 10.625C4 10.2812 4.3 10 4.66667 10ZM4.66667 12.5H11.3333C11.7 12.5 12 12.7812 12 13.125C12 13.4688 11.7 13.75 11.3333 13.75H4.66667C4.3 13.75 4 13.4688 4 13.125C4 12.7812 4.3 12.5 4.66667 12.5ZM4.66667 15H11.3333C11.7 15 12 15.2812 12 15.625C12 15.9688 11.7 16.25 11.3333 16.25H4.66667C4.3 16.25 4 15.9688 4 15.625C4 15.2812 4.3 15 4.66667 15Z" fill="#19184D"/>
</svg>
