<svg width="19" height="18" viewBox="0 0 19 18" fill="none" xmlns="http://www.w3.org/2000/svg">
<path d="M6.33342 1H2.33338C1.78109 1 1.33337 1.44771 1.33337 1.99999V5.99996C1.33337 6.55224 1.78109 6.99995 2.33338 6.99995H6.33342C6.88571 6.99995 7.33343 6.55224 7.33343 5.99996V1.99999C7.33343 1.44771 6.88571 1 6.33342 1Z" stroke="url(#paint0_linear_403_2235)" stroke-width="2" stroke-linecap="round" stroke-linejoin="round"/>
<path d="M4.33337 14V14.01" stroke="url(#paint1_linear_403_2235)" stroke-width="2" stroke-linecap="round" stroke-linejoin="round"/>
<path d="M16.3334 1H12.3334C11.7811 1 11.3334 1.44771 11.3334 1.99999V5.99996C11.3334 6.55224 11.7811 6.99995 12.3334 6.99995H16.3334C16.8857 6.99995 17.3334 6.55224 17.3334 5.99996V1.99999C17.3334 1.44771 16.8857 1 16.3334 1Z" stroke="url(#paint2_linear_403_2235)" stroke-width="2" stroke-linecap="round" stroke-linejoin="round"/>
<path d="M4.33337 4V4.01" stroke="url(#paint3_linear_403_2235)" stroke-width="2" stroke-linecap="round" stroke-linejoin="round"/>
<path d="M6.33342 11H2.33338C1.78109 11 1.33337 11.4477 1.33337 12V16C1.33337 16.5522 1.78109 17 2.33338 17H6.33342C6.88571 17 7.33343 16.5522 7.33343 16V12C7.33343 11.4477 6.88571 11 6.33342 11Z" stroke="url(#paint4_linear_403_2235)" stroke-width="2" stroke-linecap="round" stroke-linejoin="round"/>
<path d="M14.3334 4V4.01" stroke="url(#paint5_linear_403_2235)" stroke-width="2" stroke-linecap="round" stroke-linejoin="round"/>
<path d="M11.3334 11H14.3334" stroke="url(#paint6_linear_403_2235)" stroke-width="2" stroke-linecap="round" stroke-linejoin="round"/>
<path d="M17.3334 11V11.01" stroke="url(#paint7_linear_403_2235)" stroke-width="2" stroke-linecap="round" stroke-linejoin="round"/>
<path d="M11.3334 11V14" stroke="url(#paint8_linear_403_2235)" stroke-width="2" stroke-linecap="round" stroke-linejoin="round"/>
<path d="M11.3334 17H14.3334" stroke="url(#paint9_linear_403_2235)" stroke-width="2" stroke-linecap="round" stroke-linejoin="round"/>
<path d="M14.3334 14H17.3334" stroke="url(#paint10_linear_403_2235)" stroke-width="2" stroke-linecap="round" stroke-linejoin="round"/>
<path d="M17.3334 14V17" stroke="url(#paint11_linear_403_2235)" stroke-width="2" stroke-linecap="round" stroke-linejoin="round"/>
<defs>
<linearGradient id="paint0_linear_403_2235" x1="1.33337" y1="1" x2="8.37391" y2="4.15541" gradientUnits="userSpaceOnUse">
<stop stop-color="#19184D"/>
<stop offset="1" stop-color="#530393"/>
</linearGradient>
<linearGradient id="paint1_linear_403_2235" x1="4.33337" y1="14" x2="4.33408" y2="14.0314" gradientUnits="userSpaceOnUse">
<stop stop-color="#19184D"/>
<stop offset="1" stop-color="#530393"/>
</linearGradient>
<linearGradient id="paint2_linear_403_2235" x1="11.3334" y1="1" x2="18.3739" y2="4.15541" gradientUnits="userSpaceOnUse">
<stop stop-color="#19184D"/>
<stop offset="1" stop-color="#530393"/>
</linearGradient>
<linearGradient id="paint3_linear_403_2235" x1="4.33337" y1="4" x2="4.33408" y2="4.03143" gradientUnits="userSpaceOnUse">
<stop stop-color="#19184D"/>
<stop offset="1" stop-color="#530393"/>
</linearGradient>
<linearGradient id="paint4_linear_403_2235" x1="1.33337" y1="11" x2="8.37391" y2="14.1554" gradientUnits="userSpaceOnUse">
<stop stop-color="#19184D"/>
<stop offset="1" stop-color="#530393"/>
</linearGradient>
<linearGradient id="paint5_linear_403_2235" x1="14.3334" y1="4" x2="14.3341" y2="4.03143" gradientUnits="userSpaceOnUse">
<stop stop-color="#19184D"/>
<stop offset="1" stop-color="#530393"/>
</linearGradient>
<linearGradient id="paint6_linear_403_2235" x1="11.3334" y1="11" x2="12.839" y2="13.0243" gradientUnits="userSpaceOnUse">
<stop stop-color="#19184D"/>
<stop offset="1" stop-color="#530393"/>
</linearGradient>
<linearGradient id="paint7_linear_403_2235" x1="17.3334" y1="11" x2="17.3341" y2="11.0314" gradientUnits="userSpaceOnUse">
<stop stop-color="#19184D"/>
<stop offset="1" stop-color="#530393"/>
</linearGradient>
<linearGradient id="paint8_linear_403_2235" x1="11.3334" y1="11" x2="12.7117" y2="11.2059" gradientUnits="userSpaceOnUse">
<stop stop-color="#19184D"/>
<stop offset="1" stop-color="#530393"/>
</linearGradient>
<linearGradient id="paint9_linear_403_2235" x1="11.3334" y1="17" x2="12.839" y2="19.0243" gradientUnits="userSpaceOnUse">
<stop stop-color="#19184D"/>
<stop offset="1" stop-color="#530393"/>
</linearGradient>
<linearGradient id="paint10_linear_403_2235" x1="14.3334" y1="14" x2="15.839" y2="16.0243" gradientUnits="userSpaceOnUse">
<stop stop-color="#19184D"/>
<stop offset="1" stop-color="#530393"/>
</linearGradient>
<linearGradient id="paint11_linear_403_2235" x1="17.3334" y1="14" x2="18.7117" y2="14.2059" gradientUnits="userSpaceOnUse">
<stop stop-color="#19184D"/>
<stop offset="1" stop-color="#530393"/>
</linearGradient>
</defs>
</svg>
