<svg width="14" height="16" viewBox="0 0 14 16" fill="none" xmlns="http://www.w3.org/2000/svg">
<g clip-path="url(#clip0_1_273)">
<path d="M2.33333 0C1.04635 0 0 0.896875 0 2V14C0 15.1031 1.04635 16 2.33333 16H11.6667C12.9536 16 14 15.1031 14 14V5H9.33333C8.68802 5 8.16667 4.55313 8.16667 4V0H2.33333ZM9.33333 0V4H14L9.33333 0ZM2.33333 2.5C2.33333 2.225 2.59583 2 2.91667 2H5.25C5.57083 2 5.83333 2.225 5.83333 2.5C5.83333 2.775 5.57083 3 5.25 3H2.91667C2.59583 3 2.33333 2.775 2.33333 2.5ZM2.33333 4.5C2.33333 4.225 2.59583 4 2.91667 4H5.25C5.57083 4 5.83333 4.225 5.83333 4.5C5.83333 4.775 5.57083 5 5.25 5H2.91667C2.59583 5 2.33333 4.775 2.33333 4.5ZM7 6.75C7.32083 6.75 7.58333 6.975 7.58333 7.25V7.79063C7.89323 7.82813 8.19219 7.8875 8.46198 7.95C8.77187 8.02187 8.95781 8.29375 8.87396 8.5625C8.7901 8.83125 8.47292 8.9875 8.15937 8.91562C7.75469 8.82187 7.35729 8.75313 6.98906 8.75C6.68281 8.74687 6.35469 8.80625 6.12865 8.92188C5.92083 9.02813 5.83333 9.15 5.83333 9.32187C5.83333 9.4375 5.88073 9.525 6.09948 9.6375C6.35104 9.76562 6.70469 9.85937 7.16406 9.97812L7.18229 9.98125C7.59427 10.0875 8.10469 10.2188 8.50573 10.4375C8.94687 10.675 9.3224 11.0531 9.33333 11.6313C9.34427 12.2344 8.98333 12.6719 8.49844 12.9312C8.21771 13.0812 7.90052 13.1687 7.58333 13.2156V13.75C7.58333 14.025 7.32083 14.25 7 14.25C6.67917 14.25 6.41667 14.025 6.41667 13.75V13.1938C6.00833 13.1281 5.62552 13.0156 5.2901 12.9156C5.21354 12.8937 5.13698 12.8719 5.06406 12.85C4.75781 12.7625 4.59375 12.4781 4.69583 12.2188C4.79792 11.9594 5.12969 11.8156 5.43229 11.9031C5.52344 11.9281 5.60729 11.9531 5.69115 11.9781C6.18698 12.1219 6.58802 12.2406 7.01458 12.25C7.34635 12.2594 7.66719 12.1969 7.87865 12.0844C8.06458 11.9844 8.16667 11.8563 8.16302 11.6469C8.15937 11.5031 8.0974 11.4031 7.88229 11.2844C7.63437 11.15 7.28073 11.0531 6.825 10.9344L6.76667 10.9187C6.36563 10.8156 5.88073 10.6906 5.49792 10.4906C5.06042 10.2656 4.67396 9.9 4.67031 9.325C4.66667 8.71875 5.06406 8.3 5.53802 8.05937C5.81146 7.92187 6.11406 7.83437 6.41667 7.7875V7.25C6.41667 6.975 6.67917 6.75 7 6.75V6.75Z" fill="#19184D" fill-opacity="0.4"/>
</g>
<defs>
<clipPath id="clip0_1_273">
<rect width="14" height="16" fill="white"/>
</clipPath>
</defs>
</svg>
