<svg width="16" height="16" viewBox="0 0 16 16" fill="none" xmlns="http://www.w3.org/2000/svg">
<path d="M7.99999 11.7625L8.00277 11.7594L8.7361 12.2L11.1028 13.6219L10.6444 10.5719L10.5111 9.675L11.0861 9.03438L13.0333 6.86875L10.3639 6.425L9.54999 6.29063L9.19166 5.45937L8.00277 2.71563L7.99999 2.725V11.7625ZM12.8639 14.8344C12.9194 15.2094 12.7805 15.5906 12.5055 15.8125C12.2305 16.0344 11.8667 16.0625 11.5667 15.8844L8.00277 13.7437L4.43888 15.8844C4.13888 16.0625 3.77499 16.0344 3.49999 15.8125C3.22499 15.5906 3.0861 15.2094 3.14166 14.8344L3.82777 10.2812L0.933325 7.05937C0.694436 6.79375 0.608325 6.39687 0.713881 6.0375C0.819436 5.67812 1.09444 5.41563 1.42777 5.35938L5.41666 4.69688L7.20555 0.5625C7.35555 0.21875 7.66388 0 8.00555 0C8.34721 0 8.65555 0.21875 8.80555 0.5625L10.5917 4.69688L14.5805 5.35938C14.9139 5.41563 15.1917 5.67812 15.2944 6.0375C15.3972 6.39687 15.3139 6.79375 15.075 7.05937L12.1805 10.2812L12.8639 14.8344Z" fill="#19184D"/>
</svg>
