<svg width="16" height="16" viewBox="0 0 16 16" fill="none" xmlns="http://www.w3.org/2000/svg">
<path d="M9.95627 0.293701C9.56565 -0.0969238 8.93127 -0.0969238 8.54065 0.293701L4.79065 4.0437C4.40002 4.43433 4.40002 5.0687 4.79065 5.45933L5.29065 5.95933C5.68127 6.34995 6.31565 6.34995 6.70627 5.95933L6.83127 5.83433L10.1688 9.1687L10.0438 9.2937C9.65315 9.68433 9.65315 10.3187 10.0438 10.7093L10.5438 11.2093C10.9344 11.6 11.5688 11.6 11.9594 11.2093L15.7094 7.45933C16.1 7.0687 16.1 6.43433 15.7094 6.0437L15.2094 5.5437C14.8188 5.15308 14.1844 5.15308 13.7938 5.5437L13.6688 5.6687L10.3313 2.3312L10.4563 2.2062C10.8469 1.81558 10.8469 1.1812 10.4563 0.790576L9.95627 0.290576V0.293701ZM5.20627 9.2937C4.81565 8.90308 4.18127 8.90308 3.79065 9.2937L0.290649 12.7937C-0.0999756 13.1843 -0.0999756 13.8187 0.290649 14.2093L1.79065 15.7093C2.18127 16.1 2.81565 16.1 3.20627 15.7093L6.70627 12.2093C7.0969 11.8187 7.0969 11.1843 6.70627 10.7937L6.66252 10.75L8.50002 8.91558L7.0844 7.49995L5.25002 9.33433L5.20627 9.29058V9.2937Z" fill="#19184D"/>
</svg>
