<svg width="20" height="20" viewBox="0 0 20 20" fill="none" xmlns="http://www.w3.org/2000/svg">
<g clip-path="url(#clip0_1_277)">
<path d="M4.77778 5C3.79722 5 3 5.89688 3 7V9.5C3.73611 9.5 4.33333 10.1719 4.33333 11C4.33333 11.8281 3.73611 12.5 3 12.5V15C3 16.1031 3.79722 17 4.77778 17H17.2222C18.2028 17 19 16.1031 19 15V12.5C18.2639 12.5 17.6667 11.8281 17.6667 11C17.6667 10.1719 18.2639 9.5 19 9.5V7C19 5.89688 18.2028 5 17.2222 5H4.77778ZM6.55556 8V14H15.4444V8H6.55556ZM5.66667 8C5.66667 7.44688 6.06389 7 6.55556 7H15.4444C15.9361 7 16.3333 7.44688 16.3333 8V14C16.3333 14.5531 15.9361 15 15.4444 15H6.55556C6.06389 15 5.66667 14.5531 5.66667 14V8Z" fill="#19184D" fill-opacity="0.4"/>
</g>
<defs>
<clipPath id="clip0_1_277">
<rect width="20" height="20" fill="white"/>
</clipPath>
</defs>
</svg>
